<svg xmlns="http://www.w3.org/2000/svg" style="display: none;"><symbol id="instagram-sketched" viewBox="0 0 512 512"><title>instagram-sketched</title><linearGradient id="a" gradientUnits="userSpaceOnUse" x1="42.966156268" x2="469.0337477" y1="469.0296477168" y2="42.9620562848"><stop offset="0" stop-color="#ffd600"/><stop offset=".5" stop-color="#ff0100"/><stop offset="1" stop-color="#d800b9"/></linearGradient><linearGradient id="b" gradientUnits="userSpaceOnUse" x1="163.0429956456" x2="348.9539083464" y1="348.9538083312" y2="163.0428956304"><stop offset="0" stop-color="#ff6400"/><stop offset=".5" stop-color="#ff0100"/><stop offset="1" stop-color="#fd0056"/></linearGradient><linearGradient id="c" gradientUnits="userSpaceOnUse" x1="370.9291325432" x2="414.3727849912" y1="141.0676714336" y2="97.6240189856"><stop offset="0" stop-color="#f30072"/><stop offset="1" stop-color="#e50097"/></linearGradient><path d="m510.460938 150.453125c-1.246094-27.25-5.574219-45.859375-11.902344-62.140625-6.425782-17.082031-16.503906-32.554688-29.527344-45.34375-12.785156-13.023438-28.261719-23.105469-45.34375-29.535156-16.285156-6.324219-34.890625-10.648438-62.140625-11.886719-27.300781-1.25-36.023437-1.546875-105.546875-1.546875s-78.246094.296875-105.546875 1.539062c-27.25 1.246094-45.855469 5.574219-62.140625 11.902344-17.082031 6.425782-32.554688 16.503906-45.34375 29.527344-13.023438 12.785156-23.105469 28.257812-29.535156 45.339844-6.324219 16.285156-10.648438 34.894531-11.886719 62.140625-1.25 27.304687-1.546875 36.023437-1.546875 105.546875 0 69.527344.296875 78.25 1.546875 105.550781 1.242187 27.246094 5.570313 45.855469 11.898437 62.140625 6.425782 17.078125 16.503907 32.554688 29.527344 45.339844 12.785156 13.023437 28.261719 23.101562 45.34375 29.527344 16.28125 6.332031 34.890625 10.65625 62.140625 11.902343 27.304688 1.246094 36.023438 1.539063 105.546875 1.539063 69.523438 0 78.246094-.292969 105.546875-1.539063 27.25-1.246093 45.855469-5.570312 62.140625-11.902343 34.386719-13.296876 61.570313-40.480469 74.867188-74.867188 6.332031-16.285156 10.65625-34.894531 11.902344-62.140625 1.242187-27.304687 1.539062-36.023437 1.539062-105.546875 0-69.527344-.296875-78.246094-1.539062-105.546875zm-46.082032 208.996094c-1.136718 24.960937-5.308594 38.515625-8.8125 47.535156-8.613281 22.328125-26.257812 39.972656-48.585937 48.585937-9.019531 3.503907-22.574219 7.675782-47.535157 8.8125-26.988281 1.234376-35.085937 1.492188-103.445312 1.492188-68.363281 0-76.457031-.257812-103.449219-1.492188-24.957031-1.136718-38.511719-5.308593-47.535156-8.8125-11.117187-4.105468-21.175781-10.648437-29.433594-19.152343-8.503906-8.257813-15.046875-18.3125-19.152343-29.433594-3.503907-9.019531-7.675782-22.574219-8.8125-47.535156-1.230469-26.992188-1.492188-35.089844-1.492188-103.445313 0-68.359375.261719-76.453125 1.492188-103.449218 1.140624-24.960938 5.308593-38.515626 8.8125-47.535157 4.105468-11.121093 10.652343-21.179687 19.152343-29.4375 8.257813-8.503906 18.316407-15.046875 29.4375-19.148437 9.019531-3.507813 22.574219-7.675782 47.535157-8.816406 26.992187-1.230469 35.089843-1.492188 103.445312-1.492188h-.003906c68.355468 0 76.453125.261719 103.449218 1.496094 24.960938 1.136718 38.511719 5.308594 47.535157 8.8125 11.117187 4.105468 21.175781 10.648437 29.433593 19.148437 8.503907 8.257813 15.046876 18.316407 19.148438 29.4375 3.507812 9.019531 7.679688 22.574219 8.816406 47.535157 1.230469 26.992187 1.492188 35.089843 1.492188 103.445312 0 68.359375-.257813 76.453125-1.492188 103.449219zm0 0" fill="url(#a)"/><path d="m255.996094 124.539062c-72.601563 0-131.457032 58.859376-131.457032 131.460938s58.855469 131.457031 131.457032 131.457031c72.605468 0 131.460937-58.855469 131.460937-131.457031s-58.855469-131.460938-131.460937-131.460938zm0 216.792969c-47.125-.003906-85.332032-38.207031-85.328125-85.335937 0-47.125 38.203125-85.332032 85.332031-85.332032 47.128906.003907 85.332031 38.207032 85.332031 85.332032 0 47.128906-38.207031 85.335937-85.335937 85.335937zm0 0" fill="url(#b)"/><path d="m423.371094 119.347656c0 16.964844-13.753906 30.71875-30.71875 30.71875-16.96875 0-30.722656-13.753906-30.722656-30.71875 0-16.96875 13.753906-30.722656 30.722656-30.722656 16.964844 0 30.71875 13.753906 30.71875 30.722656zm0 0" fill="url(#c)"/></symbol><symbol id="twitter" viewBox="0 0 512 512"><title>twitter</title><path style="fill:#03A9F4;" d="M512,97.248c-19.04,8.352-39.328,13.888-60.48,16.576c21.76-12.992,38.368-33.408,46.176-58.016 c-20.288,12.096-42.688,20.64-66.56,25.408C411.872,60.704,384.416,48,354.464,48c-58.112,0-104.896,47.168-104.896,104.992 c0,8.32,0.704,16.32,2.432,23.936c-87.264-4.256-164.48-46.08-216.352-109.792c-9.056,15.712-14.368,33.696-14.368,53.056 c0,36.352,18.72,68.576,46.624,87.232c-16.864-0.32-33.408-5.216-47.424-12.928c0,0.32,0,0.736,0,1.152 c0,51.008,36.384,93.376,84.096,103.136c-8.544,2.336-17.856,3.456-27.52,3.456c-6.72,0-13.504-0.384-19.872-1.792 c13.6,41.568,52.192,72.128,98.08,73.12c-35.712,27.936-81.056,44.768-130.144,44.768c-8.608,0-16.864-0.384-25.12-1.44 C46.496,446.88,101.6,464,161.024,464c193.152,0,298.752-160,298.752-298.688c0-4.64-0.16-9.12-0.384-13.568 C480.224,136.96,497.728,118.496,512,97.248z"/></symbol><symbol id="youtube" viewBox="0 -77 512.00213 512"><title>youtube</title><path d="m501.453125 56.09375c-5.902344-21.933594-23.195313-39.222656-45.125-45.128906-40.066406-10.964844-200.332031-10.964844-200.332031-10.964844s-160.261719 0-200.328125 10.546875c-21.507813 5.902344-39.222657 23.617187-45.125 45.546875-10.542969 40.0625-10.542969 123.148438-10.542969 123.148438s0 83.503906 10.542969 123.148437c5.90625 21.929687 23.195312 39.222656 45.128906 45.128906 40.484375 10.964844 200.328125 10.964844 200.328125 10.964844s160.261719 0 200.328125-10.546875c21.933594-5.902344 39.222656-23.195312 45.128906-45.125 10.542969-40.066406 10.542969-123.148438 10.542969-123.148438s.421875-83.507812-10.546875-123.570312zm0 0" fill="#f00"/><path d="m204.96875 256 133.269531-76.757812-133.269531-76.757813zm0 0" fill="#fff"/></symbol><symbol id="space" viewBox="0 0 512 512"><title>space</title><path style="fill:#74C6FF;" d="M89.567,360.891c-7.487-12.525-13.557-25.847-18.106-39.71 C36.579,215.73,93.791,101.961,199.242,67.079c54.081-17.887,113.201-12.001,162.698,16.19 c17.327,9.761,33.071,22.086,46.708,36.561c10.155,10.767,19.103,22.619,26.678,35.337c11.126,18.604,19.138,38.897,23.704,60.09 c3.962,17.992,5.379,36.456,4.198,54.842c-6.63,110.874-101.891,195.376-212.765,188.746c-19.593-1.172-38.914-5.204-57.335-11.974"/><path style="fill:#0C6BC3;" d="M463.228,270.1c-1.408,23.485-6.919,46.55-16.269,68.137 c-108.425-28.357-223.751,3.131-302.725,82.657c-18.989-13.811-35.416-30.832-48.544-50.294 C191.843,274.526,331.563,236.32,463.228,270.1z"/><path style="fill:#168DE2;" d="M159.541,85.193c62.181-37.104,139.528-37.838,202.4-1.924 c-96.354,0.787-190.854,26.625-274.211,74.96C104.926,128.061,129.671,102.897,159.541,85.193z"/><path style="fill:#74C6FF;" d="M408.648,119.831c-13.645-1.05-27.377-1.749-41.285-1.749 c-107.795-0.087-212.966,33.22-301.063,95.34c4.373-19.357,11.589-37.961,21.43-55.192c83.357-48.335,177.857-74.172,274.211-74.96 C379.268,93.03,395.012,105.355,408.648,119.831z"/><path style="fill:#003170;" d="M435.326,155.167c11.126,18.604,19.138,38.897,23.704,60.09 C320.306,185.51,175.775,225.01,71.461,321.181c-11.581-34.768-13.374-72.047-5.161-107.76 c88.097-62.119,193.268-95.427,301.063-95.34c13.907,0,27.64,0.7,41.285,1.749C418.803,130.598,427.751,142.45,435.326,155.167z"/><g> <path style="fill:#168DE2;" d="M459.03,215.258c3.962,17.992,5.379,36.456,4.198,54.842 c-131.665-33.78-271.386,4.426-367.539,100.5c-2.099-3.149-4.198-6.385-6.123-9.709c-7.487-12.525-13.557-25.847-18.106-39.71 C175.775,225.01,320.306,185.51,459.03,215.258z"/> <path style="fill:#168DE2;" d="M446.959,338.237c-7.373,16.995-17.056,32.888-28.777,47.232 c-80.496-15.937-163.809,6.788-225.054,61.402h-0.087c-17.389-6.376-33.806-15.114-48.807-25.978 C223.208,341.368,338.534,309.88,446.959,338.237z"/> </g><path style="fill:#74C6FF;" d="M367.364,380.484c17.065,0.009,34.077,1.679,50.819,4.986 c-54.317,66.257-144.61,90.896-225.054,61.402C241.052,404.048,303.093,380.405,367.364,380.484z"/><path style="fill:#D95354;" d="M43.734,126.828H26.24v-26.24c0-14.493-11.747-26.24-26.24-26.24V56.854 c14.493,0,26.24-11.747,26.24-26.24V4.373h17.494v26.24c0,14.493,11.747,26.24,26.24,26.24v17.494 c-14.493,0-26.24,11.747-26.24,26.24V126.828z M26.24,65.601c3.306,2.493,6.254,5.44,8.747,8.747 c2.493-3.306,5.44-6.254,8.747-8.747c-3.306-2.493-6.254-5.44-8.747-8.747C32.494,60.16,29.547,63.108,26.24,65.601z"/><path style="fill:#03AA6F;" d="M499.632,507.627c-10.382-9.919-26.739-9.919-37.121,0l-12.368-12.368 c10.251-10.242,10.26-26.861,0.009-37.112l-0.009-0.009l12.368-12.368c10.382,9.919,26.739,9.919,37.121,0L512,458.138 c-10.251,10.242-10.26,26.861-0.009,37.112l0.009,0.009L499.632,507.627z M481.072,482.462c2.073,0,4.146,0.149,6.201,0.437 c-0.577-4.111-0.577-8.292,0-12.403c-4.111,0.586-8.292,0.586-12.403,0c0.577,4.111,0.577,8.292,0,12.403 C476.926,482.611,478.999,482.462,481.072,482.462z"/><circle style="fill:#86DAF1;" cx="489.818" cy="56.854" r="8.747"/><path d="M262.438,467.986c-115.746,0-209.922-94.176-209.922-209.922S146.692,48.142,262.438,48.142S472.36,142.318,472.36,258.064 S378.183,467.986,262.438,467.986z M262.438,65.636c-106.107,0-192.429,86.322-192.429,192.429s86.322,192.429,192.429,192.429 s192.429-86.322,192.429-192.429S368.544,65.636,262.438,65.636z"/><path d="M92.121,165.812l-8.773-15.132c84.52-49.008,180.83-75.353,278.523-76.184l0.157,17.494 C267.353,92.794,174.025,118.317,92.121,165.812z"/><path d="M71.382,220.567l-10.076-14.301c89.934-63.414,195.639-96.932,305.673-96.932c12.998-0.026,26.275,0.551,42.291,1.776 l-1.33,17.441c-15.394-1.172-28.287-1.723-40.576-1.723c-0.122,0-0.245,0-0.376,0C260.566,126.828,158.36,159.243,71.382,220.567z"/><path d="M77.374,327.653l-11.861-12.866c106.229-98.025,253.988-138.452,395.336-108.057l-3.674,17.1 C321.391,194.668,179.431,233.468,77.374,327.653z"/><path d="M95.672,379.294c-0.28,0-0.56-0.017-0.84-0.044c-2.598-0.245-4.951-1.644-6.411-3.814c-2.195-3.263-4.347-6.613-6.385-10.05 l15.036-8.93c0.07,0.114,0.14,0.227,0.21,0.341c97.631-92.226,237.632-128.674,368.151-95.147l-4.356,16.951 c-128.017-32.923-265.683,4.706-359.22,98.139C100.212,378.385,97.981,379.294,95.672,379.294z"/><path d="M150.479,427.069l-12.412-12.333c80.855-81.406,200.03-113.97,311.052-85.001l-4.426,16.934 C339.671,319.23,226.943,350.063,150.479,427.069z"/><path d="M198.822,453.388l-11.633-13.068c62.994-56.058,149.998-79.779,232.699-63.449l-3.385,17.17 C339.129,378.743,257.741,400.934,198.822,453.388z"/></symbol></svg>